<svg width="400" height="412" viewBox="0 0 400 412" fill="none" xmlns="http://www.w3.org/2000/svg">
<path d="M15.1053 132.673C21.1024 77.0179 62.9098 31.9179 117.903 21.779L224.551 2.11683C294.149 -10.7147 360.714 36.1401 372.199 106.046L398.29 264.857C411.282 343.937 348.511 415.041 268.518 411.857L121.416 406.002C48.2832 403.091 -7.10764 338.814 0.741974 265.967L15.1053 132.673Z" fill="#1B1E32"/>
<path d="M218.9 228.777C215.562 234.684 210.943 239.775 205.433 243.669C197.979 248.943 188.879 252.038 179.063 252.038C153.814 252.038 133.335 231.559 133.335 206.31C133.335 181.052 153.814 160.582 179.063 160.582C188.879 160.582 197.979 163.676 205.433 168.95H205.44C210.951 172.844 215.562 177.935 218.892 183.834C211.126 188.316 205.89 196.691 205.89 206.31C205.89 215.92 211.126 224.311 218.9 228.777Z" fill="#FD4370"/>
<path d="M263.606 228.297L256.77 224.349C254.415 222.992 251.473 223.381 249.491 225.241C244.865 229.57 238.646 232.222 231.802 232.222C227.108 232.222 222.695 230.964 218.899 228.777C211.126 224.311 205.89 215.92 205.89 206.309C205.89 196.691 211.126 188.315 218.892 183.834H218.899C222.695 181.647 227.108 180.397 231.802 180.397C238.623 180.397 244.835 183.034 249.461 187.34C251.442 189.192 254.377 189.58 256.732 188.224L263.568 184.276C266.959 182.317 267.684 177.691 264.993 174.848C256.655 166.061 244.873 160.581 231.802 160.581C221.978 160.581 212.894 163.676 205.44 168.95H205.432C205.402 168.972 205.364 168.995 205.333 169.018C204.998 169.254 204.67 169.498 204.35 169.742C204.183 169.864 204.015 169.994 203.847 170.116C203.657 170.268 203.474 170.413 203.291 170.565C203.108 170.702 202.94 170.84 202.765 170.984C202.59 171.129 202.422 171.266 202.254 171.411C202.079 171.556 201.911 171.708 201.744 171.853C201.401 172.143 201.073 172.44 200.745 172.745C200.578 172.897 200.418 173.05 200.258 173.21C199.61 173.827 198.977 174.46 198.367 175.115C198.23 175.26 198.093 175.412 197.956 175.565C197.148 176.449 196.378 177.371 195.639 178.316C195.54 178.446 195.441 178.575 195.349 178.705C194.984 179.177 194.663 179.642 194.26 180.183C194.183 180.282 194.061 180.458 193.993 180.564C193.566 181.212 193.147 181.868 192.728 182.516C192.674 182.607 192.583 182.759 192.529 182.851C192.308 183.255 192.087 183.628 191.859 184.025C191.684 184.345 191.508 184.672 191.333 185C191.241 185.183 191.142 185.366 191.051 185.549C190.746 186.143 190.449 186.761 190.167 187.378C190.075 187.584 189.984 187.789 189.893 187.995C189.428 189.047 189.008 190.122 188.627 191.219C188.551 191.417 188.49 191.615 188.422 191.821C188.345 192.035 188.277 192.256 188.208 192.469C188.162 192.621 188.117 192.766 188.071 192.911C188.033 193.018 188.002 193.132 187.972 193.246C187.842 193.673 187.72 194.108 187.606 194.542C187.553 194.74 187.499 194.931 187.454 195.121C187.339 195.571 187.233 196.021 187.134 196.47C187.088 196.676 187.05 196.882 187.004 197.087C186.996 197.11 186.996 197.133 186.996 197.156C186.943 197.377 186.905 197.606 186.859 197.834C186.775 198.269 186.707 198.703 186.623 199.13C186.585 199.321 186.562 199.511 186.539 199.694C186.493 200.121 186.425 200.586 186.371 201.058L186.326 201.47C186.31 201.653 186.295 201.836 186.272 202.019C186.265 202.163 186.25 202.3 186.234 202.445C186.227 202.56 186.219 202.674 186.211 202.788C186.181 203.177 186.158 203.566 186.135 203.954C186.128 204.137 186.12 204.32 186.112 204.503V204.579C186.097 204.747 186.097 204.907 186.097 205.075C186.089 205.242 186.082 205.41 186.082 205.585C186.082 205.822 186.074 206.065 186.074 206.309C186.074 206.546 186.082 206.789 186.082 207.026C186.082 207.201 186.089 207.369 186.097 207.544C186.097 207.704 186.097 207.864 186.112 208.032V208.108L186.135 208.657C186.158 209.053 186.181 209.434 186.211 209.823C186.219 209.937 186.227 210.051 186.234 210.166C186.25 210.311 186.265 210.455 186.272 210.593C186.295 210.775 186.31 210.958 186.326 211.141C186.341 211.278 186.356 211.416 186.371 211.553C186.425 212.025 186.493 212.49 186.539 212.917C186.562 213.108 186.585 213.29 186.623 213.481C186.707 213.908 186.775 214.342 186.859 214.777C186.905 215.005 186.943 215.234 186.996 215.455C186.996 215.478 186.996 215.501 187.004 215.524C187.05 215.729 187.088 215.935 187.134 216.141C187.233 216.59 187.339 217.04 187.454 217.49C187.499 217.68 187.553 217.879 187.606 218.069C187.72 218.503 187.842 218.938 187.972 219.365C188.002 219.479 188.033 219.593 188.071 219.7C188.117 219.845 188.162 219.997 188.208 220.142C188.277 220.363 188.345 220.576 188.422 220.79C188.49 220.996 188.551 221.194 188.627 221.4C189.008 222.489 189.428 223.564 189.893 224.616C189.984 224.822 190.075 225.027 190.167 225.233C190.449 225.85 190.746 226.468 191.051 227.07C191.142 227.253 191.241 227.436 191.333 227.619C191.508 227.939 191.684 228.266 191.859 228.586C192.026 228.876 192.187 229.15 192.347 229.432C192.537 229.775 192.872 230.309 193.078 230.637L193.962 232.008C194.031 232.123 194.16 232.306 194.244 232.412C194.656 232.954 194.976 233.434 195.349 233.906C195.441 234.036 195.54 234.165 195.639 234.295C196.378 235.24 197.148 236.162 197.956 237.054C198.093 237.206 198.23 237.351 198.367 237.496C198.977 238.151 199.61 238.791 200.258 239.401C200.418 239.561 200.578 239.714 200.745 239.866C201.073 240.171 201.401 240.468 201.744 240.758C201.911 240.91 202.079 241.055 202.254 241.2C202.422 241.345 202.59 241.489 202.765 241.627C202.94 241.771 203.108 241.916 203.291 242.053C203.474 242.198 203.657 242.343 203.847 242.495C204.015 242.617 204.183 242.747 204.35 242.876C204.67 243.12 204.998 243.357 205.333 243.593C205.364 243.616 205.402 243.639 205.432 243.669C212.886 248.935 221.978 252.037 231.802 252.037C244.888 252.037 256.694 246.535 265.031 237.717C267.722 234.874 266.99 230.248 263.606 228.297Z" fill="white"/>
</svg>
